<?xml version="1.0" standalone="no"?>
<!DOCTYPE svg PUBLIC "-//W3C//DTD SVG 20010904//EN"
 "http://www.w3.org/TR/2001/REC-SVG-20010904/DTD/svg10.dtd">
<svg version="1.0" xmlns="http://www.w3.org/2000/svg"
 width="330.000000pt" height="330.000000pt" viewBox="0 0 330.000000 330.000000"
 preserveAspectRatio="xMidYMid meet">
<metadata>
Created by potrace 1.14, written by Peter Selinger 2001-2017
</metadata>
<g transform="translate(0.000000,330.000000) scale(0.100000,-0.100000)"
fill="#000000" stroke="none">
<path d="M680 2729 c-139 -12 -245 -50 -337 -120 -114 -86 -173 -195 -178
-332 -9 -247 122 -377 519 -517 310 -109 405 -190 406 -345 0 -83 -14 -125
-59 -177 -71 -80 -181 -119 -336 -120 -167 -1 -298 27 -426 92 l-77 39 -55
-79 -55 -78 66 -35 c84 -44 182 -82 253 -96 30 -6 65 -14 79 -18 14 -3 95 -7
180 -9 136 -2 166 1 247 21 51 13 121 39 155 57 85 45 173 134 210 214 37 80
42 107 41 219 -2 243 -135 370 -533 510 -318 112 -399 182 -388 335 9 119 66
186 200 235 56 20 78 23 193 20 72 -2 144 -6 160 -9 73 -16 151 -39 196 -56
l49 -20 41 81 c22 45 37 85 32 89 -14 14 -155 61 -223 75 -127 27 -243 34
-360 24z"/>
<path d="M2480 2733 c-278 -17 -491 -103 -659 -266 -136 -132 -226 -314 -249
-504 -12 -98 -6 -294 12 -380 67 -330 296 -557 637 -630 90 -19 354 -25 459
-10 131 18 290 66 388 116 l41 21 0 395 0 395 -321 -2 -320 -3 0 -67 c1 -38 1
-79 1 -92 l1 -24 183 0 c100 0 193 -1 207 -1 l25 -1 0 -240 c0 -203 -2 -242
-15 -250 -35 -22 -181 -61 -255 -68 -345 -33 -600 73 -726 301 -58 103 -82
208 -85 372 -2 97 1 161 11 209 47 214 166 367 360 461 152 74 329 97 529 69
90 -13 229 -51 282 -79 15 -8 31 -12 35 -9 7 4 89 151 89 160 0 18 -243 97
-335 110 -117 16 -215 21 -295 17z"/>
</g>
</svg>
